<?xml version="1.0" encoding="UTF-8" standalone="no"?>
<!DOCTYPE svg PUBLIC "-//W3C//DTD SVG 1.1//EN"
 "http://www.w3.org/Graphics/SVG/1.1/DTD/svg11.dtd">
<!-- Generated by graphviz version 2.42.4 (0)
 -->
<!-- Title: ClassDiagram Pages: 1 -->
<svg width="1454pt" height="300pt"
 viewBox="0.00 0.00 1454.20 299.95" xmlns="http://www.w3.org/2000/svg" xmlns:xlink="http://www.w3.org/1999/xlink">
<g id="graph0" class="graph" transform="scale(1 1) rotate(0) translate(21.6 278.35)">
<title>ClassDiagram</title>
<polygon fill="white" stroke="transparent" points="-21.6,21.6 -21.6,-278.35 1432.6,-278.35 1432.6,21.6 -21.6,21.6"/>
<text text-anchor="middle" x="705.5" y="-236.75" font-family="DejaVu Sans" font-size="20.00">Core Class Diagram</text>
<!-- controller -->
<g id="node1" class="node">
<title>controller</title>
<polygon fill="#dbeafe" stroke="black" points="344,-118.25 344,-176.25 539,-176.25 539,-118.25 344,-118.25"/>
<text text-anchor="middle" x="376.5" y="-145.05" font-family="DejaVu Sans" font-size="9.00">Controllers</text>
<polyline fill="none" stroke="black" points="409,-118.25 409,-176.25 "/>
<text text-anchor="start" x="417" y="-165.05" font-family="DejaVu Sans" font-size="9.00">PublicController</text>
<text text-anchor="start" x="417" y="-155.05" font-family="DejaVu Sans" font-size="9.00">AuthController</text>
<text text-anchor="start" x="417" y="-145.05" font-family="DejaVu Sans" font-size="9.00">Customer Controllers</text>
<text text-anchor="start" x="417" y="-135.05" font-family="DejaVu Sans" font-size="9.00">StaffDashboardController</text>
<text text-anchor="start" x="417" y="-125.05" font-family="DejaVu Sans" font-size="9.00">Admin Controllers</text>
</g>
<!-- service -->
<g id="node2" class="node">
<title>service</title>
<polygon fill="#dcfce7" stroke="black" points="660,-16.25 660,-114.25 830,-114.25 830,-16.25 660,-16.25"/>
<text text-anchor="middle" x="687" y="-63.05" font-family="DejaVu Sans" font-size="9.00">Services</text>
<polyline fill="none" stroke="black" points="714,-16.25 714,-114.25 "/>
<text text-anchor="start" x="722" y="-103.05" font-family="DejaVu Sans" font-size="9.00">AuthService</text>
<text text-anchor="start" x="722" y="-93.05" font-family="DejaVu Sans" font-size="9.00">BookService</text>
<text text-anchor="start" x="722" y="-83.05" font-family="DejaVu Sans" font-size="9.00">CartService</text>
<text text-anchor="start" x="722" y="-73.05" font-family="DejaVu Sans" font-size="9.00">PurchaseOrderService</text>
<text text-anchor="start" x="722" y="-63.05" font-family="DejaVu Sans" font-size="9.00">RentalOrderService</text>
<text text-anchor="start" x="722" y="-53.05" font-family="DejaVu Sans" font-size="9.00">WalletService</text>
<text text-anchor="start" x="722" y="-43.05" font-family="DejaVu Sans" font-size="9.00">VoucherService</text>
<text text-anchor="start" x="722" y="-33.05" font-family="DejaVu Sans" font-size="9.00">UserService</text>
<text text-anchor="start" x="722" y="-23.05" font-family="DejaVu Sans" font-size="9.00">RevenueService</text>
</g>
<!-- controller&#45;&gt;service -->
<g id="edge1" class="edge">
<title>controller&#45;&gt;service</title>
<path fill="none" stroke="#475569" d="M539.14,-120.97C574.56,-111.33 614.58,-100.45 649.79,-90.87"/>
<polygon fill="#475569" stroke="#475569" points="650.86,-94.21 659.59,-88.21 649.02,-87.46 650.86,-94.21"/>
<text text-anchor="middle" x="599.5" y="-113.85" font-family="DejaVu Sans" font-size="8.00">calls</text>
</g>
<!-- view -->
<g id="node6" class="node">
<title>view</title>
<polygon fill="#cffafe" stroke="black" points="666,-158.25 666,-226.25 824,-226.25 824,-158.25 666,-158.25"/>
<text text-anchor="middle" x="712" y="-190.05" font-family="DejaVu Sans" font-size="9.00">Thymeleaf Views</text>
<polyline fill="none" stroke="black" points="758,-158.25 758,-226.25 "/>
<text text-anchor="start" x="766" y="-215.05" font-family="DejaVu Sans" font-size="9.00">public/</text>
<text text-anchor="start" x="766" y="-205.05" font-family="DejaVu Sans" font-size="9.00">auth/</text>
<text text-anchor="start" x="766" y="-195.05" font-family="DejaVu Sans" font-size="9.00">customer/</text>
<text text-anchor="start" x="766" y="-185.05" font-family="DejaVu Sans" font-size="9.00">staff/</text>
<text text-anchor="start" x="766" y="-175.05" font-family="DejaVu Sans" font-size="9.00">admin/</text>
<text text-anchor="start" x="766" y="-165.05" font-family="DejaVu Sans" font-size="9.00">fragments/</text>
</g>
<!-- controller&#45;&gt;view -->
<g id="edge5" class="edge">
<title>controller&#45;&gt;view</title>
<path fill="none" stroke="#475569" d="M539.14,-161.67C576.45,-167.24 618.87,-173.57 655.38,-179.02"/>
<polygon fill="#475569" stroke="#475569" points="655.11,-182.52 665.52,-180.54 656.14,-175.6 655.11,-182.52"/>
<text text-anchor="middle" x="599.5" y="-175.85" font-family="DejaVu Sans" font-size="8.00">Model + view</text>
</g>
<!-- repository -->
<g id="node3" class="node">
<title>repository</title>
<polygon fill="#fef3c7" stroke="black" points="916,-46.25 916,-84.25 1122,-84.25 1122,-46.25 916,-46.25"/>
<text text-anchor="middle" x="951.5" y="-63.05" font-family="DejaVu Sans" font-size="9.00">Repositories</text>
<polyline fill="none" stroke="black" points="987,-46.25 987,-84.25 "/>
<text text-anchor="start" x="995" y="-73.05" font-family="DejaVu Sans" font-size="9.00">JpaRepository interfaces</text>
<text text-anchor="start" x="995" y="-63.05" font-family="DejaVu Sans" font-size="9.00">Pessimistic&#45;lock queries</text>
<text text-anchor="start" x="995" y="-53.05" font-family="DejaVu Sans" font-size="9.00">EntityGraph detail queries</text>
</g>
<!-- service&#45;&gt;repository -->
<g id="edge2" class="edge">
<title>service&#45;&gt;repository</title>
<path fill="none" stroke="#475569" d="M830.2,-65.25C853.92,-65.25 880.12,-65.25 905.23,-65.25"/>
<polygon fill="#475569" stroke="#475569" points="905.53,-68.75 915.53,-65.25 905.53,-61.75 905.53,-68.75"/>
<text text-anchor="middle" x="873" y="-67.85" font-family="DejaVu Sans" font-size="8.00">uses</text>
</g>
<!-- entity -->
<g id="node4" class="node">
<title>entity</title>
<polygon fill="#fee2e2" stroke="black" points="1224,-82.25 1224,-140.25 1411,-140.25 1411,-82.25 1224,-82.25"/>
<text text-anchor="middle" x="1249" y="-109.05" font-family="DejaVu Sans" font-size="9.00">Entities</text>
<polyline fill="none" stroke="black" points="1274,-82.25 1274,-140.25 "/>
<text text-anchor="start" x="1282" y="-129.05" font-family="DejaVu Sans" font-size="9.00">User, Role, Address, Wallet</text>
<text text-anchor="start" x="1282" y="-119.05" font-family="DejaVu Sans" font-size="9.00">Book, BookCopy, Category</text>
<text text-anchor="start" x="1282" y="-109.05" font-family="DejaVu Sans" font-size="9.00">PurchaseOrder + Detail</text>
<text text-anchor="start" x="1282" y="-99.05" font-family="DejaVu Sans" font-size="9.00">RentalOrder + Detail</text>
<text text-anchor="start" x="1282" y="-89.05" font-family="DejaVu Sans" font-size="9.00">Voucher, Payment, Logs</text>
</g>
<!-- repository&#45;&gt;entity -->
<g id="edge3" class="edge">
<title>repository&#45;&gt;entity</title>
<path fill="none" stroke="#475569" d="M1122.04,-81.08C1151.69,-85.68 1184.08,-90.71 1213.77,-95.31"/>
<polygon fill="#475569" stroke="#475569" points="1213.31,-98.78 1223.72,-96.86 1214.38,-91.86 1213.31,-98.78"/>
<text text-anchor="middle" x="1173" y="-93.85" font-family="DejaVu Sans" font-size="8.00">maps</text>
</g>
<!-- db -->
<g id="node7" class="node">
<title>db</title>
<path fill="#f3f4f6" stroke="black" d="M1369.5,-34.8C1369.5,-36.7 1346.19,-38.25 1317.5,-38.25 1288.81,-38.25 1265.5,-36.7 1265.5,-34.8 1265.5,-34.8 1265.5,-3.7 1265.5,-3.7 1265.5,-1.8 1288.81,-0.25 1317.5,-0.25 1346.19,-0.25 1369.5,-1.8 1369.5,-3.7 1369.5,-3.7 1369.5,-34.8 1369.5,-34.8"/>
<path fill="none" stroke="black" d="M1369.5,-34.8C1369.5,-32.89 1346.19,-31.34 1317.5,-31.34 1288.81,-31.34 1265.5,-32.89 1265.5,-34.8"/>
<text text-anchor="middle" x="1317.5" y="-22.05" font-family="DejaVu Sans" font-size="9.00">SQL Server</text>
<text text-anchor="middle" x="1317.5" y="-12.05" font-family="DejaVu Sans" font-size="9.00">BookStoreRentalDB</text>
</g>
<!-- repository&#45;&gt;db -->
<g id="edge4" class="edge">
<title>repository&#45;&gt;db</title>
<path fill="none" stroke="#475569" d="M1122.04,-49.42C1166.32,-42.55 1216.72,-34.73 1255.12,-28.77"/>
<polygon fill="#475569" stroke="#475569" points="1255.76,-32.21 1265.11,-27.22 1254.69,-25.3 1255.76,-32.21"/>
<text text-anchor="middle" x="1173" y="-46.85" font-family="DejaVu Sans" font-size="8.00">JPA / SQL</text>
</g>
<!-- config -->
<g id="node5" class="node">
<title>config</title>
<polygon fill="#ede9fe" stroke="black" points="0,-81.25 0,-119.25 205,-119.25 205,-81.25 0,-81.25"/>
<text text-anchor="middle" x="39" y="-98.05" font-family="DejaVu Sans" font-size="9.00">Configuration</text>
<polyline fill="none" stroke="black" points="78,-81.25 78,-119.25 "/>
<text text-anchor="start" x="86" y="-108.05" font-family="DejaVu Sans" font-size="9.00">SecurityConfig</text>
<text text-anchor="start" x="86" y="-98.05" font-family="DejaVu Sans" font-size="9.00">WebConfig</text>
<text text-anchor="start" x="86" y="-88.05" font-family="DejaVu Sans" font-size="9.00">BCryptPasswordEncoder</text>
</g>
<!-- config&#45;&gt;controller -->
<g id="edge6" class="edge">
<title>config&#45;&gt;controller</title>
<path fill="none" stroke="#475569" d="M205.07,-114.42C245.71,-120.08 292.56,-126.62 333.71,-132.36"/>
<polygon fill="#475569" stroke="#475569" points="333.37,-135.84 343.76,-133.76 334.34,-128.91 333.37,-135.84"/>
<text text-anchor="middle" x="274.5" y="-130.85" font-family="DejaVu Sans" font-size="8.00">URL authorization</text>
</g>
<!-- config&#45;&gt;service -->
<g id="edge7" class="edge">
<title>config&#45;&gt;service</title>
<path fill="none" stroke="#475569" d="M205.34,-94.68C327.61,-88 531,-76.89 649.78,-70.4"/>
<polygon fill="#475569" stroke="#475569" points="650.15,-73.88 659.94,-69.84 649.77,-66.89 650.15,-73.88"/>
<text text-anchor="middle" x="441.5" y="-89.85" font-family="DejaVu Sans" font-size="8.00">authentication</text>
</g>
</g>
</svg>
