<?xml version="1.0" encoding="UTF-8" standalone="no"?>
<!DOCTYPE svg PUBLIC "-//W3C//DTD SVG 1.1//EN"
 "http://www.w3.org/Graphics/SVG/1.1/DTD/svg11.dtd">
<!-- Generated by graphviz version 2.42.4 (0)
 -->
<!-- Title: ERD Pages: 1 -->
<svg width="1462pt" height="1469pt"
 viewBox="0.00 0.00 1462.20 1469.20" xmlns="http://www.w3.org/2000/svg" xmlns:xlink="http://www.w3.org/1999/xlink">
<g id="graph0" class="graph" transform="scale(1 1) rotate(0) translate(21.6 1447.6)">
<title>ERD</title>
<polygon fill="white" stroke="transparent" points="-21.6,21.6 -21.6,-1447.6 1440.6,-1447.6 1440.6,21.6 -21.6,21.6"/>
<text text-anchor="middle" x="709.5" y="-1406" font-family="DejaVu Sans" font-size="20.00">Book Store &amp; Rental Management System &#45; ERD</text>
<!-- roles -->
<g id="node1" class="node">
<title>roles</title>
<polygon fill="#dbeafe" stroke="transparent" points="19.5,-935 19.5,-954 90.5,-954 90.5,-935 19.5,-935"/>
<text text-anchor="start" x="35" y="-941.8" font-family="DejaVu Sans" font-weight="bold" font-size="14.00">roles</text>
<text text-anchor="start" x="21.5" y="-921.8" font-family="DejaVu Sans" font-size="14.00">PK role_id</text>
<text text-anchor="start" x="21.5" y="-902.8" font-family="DejaVu Sans" font-size="14.00">name</text>
<polygon fill="none" stroke="black" points="18,-896.5 18,-955.5 91,-955.5 91,-896.5 18,-896.5"/>
</g>
<!-- users -->
<g id="node2" class="node">
<title>users</title>
<polygon fill="#dbeafe" stroke="transparent" points="224.5,-954 224.5,-973 387.5,-973 387.5,-954 224.5,-954"/>
<text text-anchor="start" x="284.5" y="-960.8" font-family="DejaVu Sans" font-weight="bold" font-size="14.00">users</text>
<text text-anchor="start" x="226.5" y="-940.8" font-family="DejaVu Sans" font-size="14.00">PK user_id</text>
<text text-anchor="start" x="226.5" y="-921.8" font-family="DejaVu Sans" font-size="14.00">FK role_id</text>
<text text-anchor="start" x="226.5" y="-902.8" font-family="DejaVu Sans" font-size="14.00">username, email</text>
<text text-anchor="start" x="226.5" y="-883.8" font-family="DejaVu Sans" font-size="14.00">password_hash, status</text>
<polygon fill="none" stroke="black" points="223,-877.5 223,-974.5 388,-974.5 388,-877.5 223,-877.5"/>
</g>
<!-- roles&#45;&gt;users -->
<g id="edge1" class="edge">
<title>roles&#45;&gt;users</title>
<path fill="none" stroke="#606060" stroke-width="1.1" d="M91.27,-926C91.27,-926 215.95,-926 215.95,-926"/>
<polygon fill="#606060" stroke="#606060" stroke-width="1.1" points="215.95,-928.45 222.95,-926 215.95,-923.55 215.95,-928.45"/>
<text text-anchor="middle" x="155" y="-929.8" font-family="Times,serif" font-size="14.00">1:N</text>
</g>
<!-- staff -->
<g id="node3" class="node">
<title>staff</title>
<polygon fill="#dbeafe" stroke="transparent" points="574,-945 574,-964 686,-964 686,-945 574,-945"/>
<text text-anchor="start" x="611.5" y="-951.8" font-family="DejaVu Sans" font-weight="bold" font-size="14.00">staff</text>
<text text-anchor="start" x="576" y="-931.8" font-family="DejaVu Sans" font-size="14.00">PK staff_id</text>
<text text-anchor="start" x="576" y="-912.8" font-family="DejaVu Sans" font-size="14.00">FK user_id</text>
<text text-anchor="start" x="576" y="-893.8" font-family="DejaVu Sans" font-size="14.00">employee_code</text>
<polygon fill="none" stroke="black" points="573,-887 573,-965 687,-965 687,-887 573,-887"/>
</g>
<!-- users&#45;&gt;staff -->
<g id="edge2" class="edge">
<title>users&#45;&gt;staff</title>
<path fill="none" stroke="#606060" stroke-width="1.1" d="M388.22,-926C388.22,-926 565.98,-926 565.98,-926"/>
<polygon fill="#606060" stroke="#606060" stroke-width="1.1" points="565.98,-928.45 572.98,-926 565.98,-923.55 565.98,-928.45"/>
<text text-anchor="middle" x="463.5" y="-929.8" font-family="Times,serif" font-size="14.00">1:0..1</text>
</g>
<!-- addresses -->
<g id="node4" class="node">
<title>addresses</title>
<polygon fill="#dbeafe" stroke="transparent" points="548,-827 548,-846 712,-846 712,-827 548,-827"/>
<text text-anchor="start" x="589.5" y="-833.8" font-family="DejaVu Sans" font-weight="bold" font-size="14.00">addresses</text>
<text text-anchor="start" x="550" y="-813.8" font-family="DejaVu Sans" font-size="14.00">PK address_id</text>
<text text-anchor="start" x="550" y="-794.8" font-family="DejaVu Sans" font-size="14.00">FK user_id</text>
<text text-anchor="start" x="550" y="-775.8" font-family="DejaVu Sans" font-size="14.00">province, district, ward</text>
<polygon fill="none" stroke="black" points="547,-769 547,-847 713,-847 713,-769 547,-769"/>
</g>
<!-- users&#45;&gt;addresses -->
<g id="edge3" class="edge">
<title>users&#45;&gt;addresses</title>
<path fill="none" stroke="#606060" stroke-width="1.1" d="M388.27,-885.1C459.54,-885.1 551,-885.1 551,-885.1 551,-885.1 551,-854 551,-854"/>
<polygon fill="#606060" stroke="#606060" stroke-width="1.1" points="553.45,-854 551,-847 548.55,-854 553.45,-854"/>
<text text-anchor="middle" x="463.5" y="-816.8" font-family="Times,serif" font-size="14.00">1:N</text>
</g>
<!-- carts -->
<g id="node8" class="node">
<title>carts</title>
<polygon fill="#fef3c7" stroke="transparent" points="592,-1162 592,-1181 669,-1181 669,-1162 592,-1162"/>
<text text-anchor="start" x="610.5" y="-1168.8" font-family="DejaVu Sans" font-weight="bold" font-size="14.00">carts</text>
<text text-anchor="start" x="594" y="-1148.8" font-family="DejaVu Sans" font-size="14.00">PK cart_id</text>
<text text-anchor="start" x="594" y="-1129.8" font-family="DejaVu Sans" font-size="14.00">FK user_id</text>
<polygon fill="none" stroke="black" points="590.5,-1123.5 590.5,-1182.5 669.5,-1182.5 669.5,-1123.5 590.5,-1123.5"/>
</g>
<!-- users&#45;&gt;carts -->
<g id="edge6" class="edge">
<title>users&#45;&gt;carts</title>
<path fill="none" stroke="#606060" stroke-width="1.1" d="M333,-974.7C333,-1041.4 333,-1153 333,-1153 333,-1153 583.25,-1153 583.25,-1153"/>
<polygon fill="#606060" stroke="#606060" stroke-width="1.1" points="583.25,-1155.45 590.25,-1153 583.25,-1150.55 583.25,-1155.45"/>
<text text-anchor="middle" x="463.5" y="-1132.8" font-family="Times,serif" font-size="14.00">1:1</text>
</g>
<!-- purchase -->
<g id="node10" class="node">
<title>purchase</title>
<polygon fill="#fee2e2" stroke="transparent" points="518,-709 518,-728 742,-728 742,-709 518,-709"/>
<text text-anchor="start" x="565" y="-715.8" font-family="DejaVu Sans" font-weight="bold" font-size="14.00">purchase_orders</text>
<text text-anchor="start" x="520" y="-695.8" font-family="DejaVu Sans" font-size="14.00">PK purchase_order_id</text>
<text text-anchor="start" x="520" y="-676.8" font-family="DejaVu Sans" font-size="14.00">FK user/voucher/processed_by</text>
<text text-anchor="start" x="520" y="-657.8" font-family="DejaVu Sans" font-size="14.00">amounts, payment/order status</text>
<polygon fill="none" stroke="black" points="517,-651 517,-729 743,-729 743,-651 517,-651"/>
</g>
<!-- users&#45;&gt;purchase -->
<g id="edge9" class="edge">
<title>users&#45;&gt;purchase</title>
<path fill="none" stroke="#606060" stroke-width="1.1" d="M388.23,-883.2C452.94,-883.2 532,-883.2 532,-883.2 532,-883.2 532,-736.1 532,-736.1"/>
<polygon fill="#606060" stroke="#606060" stroke-width="1.1" points="534.45,-736.1 532,-729.1 529.55,-736.1 534.45,-736.1"/>
<text text-anchor="middle" x="463.5" y="-756.8" font-family="Times,serif" font-size="14.00">1:N</text>
</g>
<!-- rental -->
<g id="node12" class="node">
<title>rental</title>
<polygon fill="#ede9fe" stroke="transparent" points="522,-473 522,-492 739,-492 739,-473 522,-473"/>
<text text-anchor="start" x="577.5" y="-479.8" font-family="DejaVu Sans" font-weight="bold" font-size="14.00">rental_orders</text>
<text text-anchor="start" x="524" y="-459.8" font-family="DejaVu Sans" font-size="14.00">PK rental_order_id</text>
<text text-anchor="start" x="524" y="-440.8" font-family="DejaVu Sans" font-size="14.00">FK user/voucher/processed_by</text>
<text text-anchor="start" x="524" y="-421.8" font-family="DejaVu Sans" font-size="14.00">dates, deposit, fees, status</text>
<polygon fill="none" stroke="black" points="520.5,-415 520.5,-493 739.5,-493 739.5,-415 520.5,-415"/>
</g>
<!-- users&#45;&gt;rental -->
<g id="edge13" class="edge">
<title>users&#45;&gt;rental</title>
<path fill="none" stroke="#606060" stroke-width="1.1" d="M388.12,-879.4C395.93,-879.4 401,-879.4 401,-879.4 401,-879.4 401,-454 401,-454 401,-454 513.2,-454 513.2,-454"/>
<polygon fill="#606060" stroke="#606060" stroke-width="1.1" points="513.2,-456.45 520.2,-454 513.2,-451.55 513.2,-456.45"/>
<text text-anchor="middle" x="463.5" y="-516.8" font-family="Times,serif" font-size="14.00">1:N</text>
</g>
<!-- uservouchers -->
<g id="node17" class="node">
<title>uservouchers</title>
<polygon fill="#fae8ff" stroke="transparent" points="550,-591 550,-610 711,-610 711,-591 550,-591"/>
<text text-anchor="start" x="574" y="-597.8" font-family="DejaVu Sans" font-weight="bold" font-size="14.00">user_vouchers</text>
<text text-anchor="start" x="552" y="-577.8" font-family="DejaVu Sans" font-size="14.00">PK user_voucher_id</text>
<text text-anchor="start" x="552" y="-558.8" font-family="DejaVu Sans" font-size="14.00">FK user_id, voucher_id</text>
<text text-anchor="start" x="552" y="-539.8" font-family="DejaVu Sans" font-size="14.00">usage_count</text>
<polygon fill="none" stroke="black" points="548.5,-533 548.5,-611 711.5,-611 711.5,-533 548.5,-533"/>
</g>
<!-- users&#45;&gt;uservouchers -->
<g id="edge21" class="edge">
<title>users&#45;&gt;uservouchers</title>
<path fill="none" stroke="#606060" stroke-width="1.1" d="M388.03,-881.3C398.7,-881.3 406,-881.3 406,-881.3 406,-881.3 406,-580.2 406,-580.2 406,-580.2 541.5,-580.2 541.5,-580.2"/>
<polygon fill="#606060" stroke="#606060" stroke-width="1.1" points="541.5,-582.65 548.5,-580.2 541.5,-577.75 541.5,-582.65"/>
<text text-anchor="middle" x="463.5" y="-696.8" font-family="Times,serif" font-size="14.00">1:N</text>
</g>
<!-- wallets -->
<g id="node18" class="node">
<title>wallets</title>
<polygon fill="#cffafe" stroke="transparent" points="571,-1376 571,-1395 690,-1395 690,-1376 571,-1376"/>
<text text-anchor="start" x="602" y="-1382.8" font-family="DejaVu Sans" font-weight="bold" font-size="14.00">wallets</text>
<text text-anchor="start" x="573" y="-1362.8" font-family="DejaVu Sans" font-size="14.00">PK wallet_id</text>
<text text-anchor="start" x="573" y="-1343.8" font-family="DejaVu Sans" font-size="14.00">FK user_id</text>
<text text-anchor="start" x="573" y="-1324.8" font-family="DejaVu Sans" font-size="14.00">balance, version</text>
<polygon fill="none" stroke="black" points="569.5,-1318 569.5,-1396 690.5,-1396 690.5,-1318 569.5,-1318"/>
</g>
<!-- users&#45;&gt;wallets -->
<g id="edge23" class="edge">
<title>users&#45;&gt;wallets</title>
<path fill="none" stroke="#606060" stroke-width="1.1" d="M278,-974.6C278,-1087.32 278,-1357 278,-1357 278,-1357 562.49,-1357 562.49,-1357"/>
<polygon fill="#606060" stroke="#606060" stroke-width="1.1" points="562.49,-1359.45 569.49,-1357 562.49,-1354.55 562.49,-1359.45"/>
<text text-anchor="middle" x="463.5" y="-1346.8" font-family="Times,serif" font-size="14.00">1:1</text>
</g>
<!-- payments -->
<g id="node20" class="node">
<title>payments</title>
<polygon fill="#cffafe" stroke="transparent" points="900.5,-709 900.5,-728 1072.5,-728 1072.5,-709 900.5,-709"/>
<text text-anchor="start" x="948" y="-715.8" font-family="DejaVu Sans" font-weight="bold" font-size="14.00">payments</text>
<text text-anchor="start" x="902.5" y="-695.8" font-family="DejaVu Sans" font-size="14.00">PK payment_id</text>
<text text-anchor="start" x="902.5" y="-676.8" font-family="DejaVu Sans" font-size="14.00">FK user/order</text>
<text text-anchor="start" x="902.5" y="-657.8" font-family="DejaVu Sans" font-size="14.00">amount, method, status</text>
<polygon fill="none" stroke="black" points="899.5,-651 899.5,-729 1073.5,-729 1073.5,-651 899.5,-651"/>
</g>
<!-- users&#45;&gt;payments -->
<g id="edge25" class="edge">
<title>users&#45;&gt;payments</title>
<path fill="none" stroke="#606060" stroke-width="1.1" d="M388.04,-968.17C569.48,-968.17 987,-968.17 987,-968.17 987,-968.17 987,-736.26 987,-736.26"/>
<polygon fill="#606060" stroke="#606060" stroke-width="1.1" points="989.45,-736.26 987,-729.26 984.55,-736.26 989.45,-736.26"/>
<text text-anchor="middle" x="630" y="-1266.8" font-family="Times,serif" font-size="14.00">1:N</text>
</g>
<!-- logs -->
<g id="node21" class="node">
<title>logs</title>
<polygon fill="#f3f4f6" stroke="transparent" points="555,-1063 555,-1082 705,-1082 705,-1063 555,-1063"/>
<text text-anchor="start" x="581" y="-1069.8" font-family="DejaVu Sans" font-weight="bold" font-size="14.00">activity_logs</text>
<text text-anchor="start" x="557" y="-1049.8" font-family="DejaVu Sans" font-size="14.00">PK activity_log_id</text>
<text text-anchor="start" x="557" y="-1030.8" font-family="DejaVu Sans" font-size="14.00">FK actor_id</text>
<text text-anchor="start" x="557" y="-1011.8" font-family="DejaVu Sans" font-size="14.00">action, entity, details</text>
<polygon fill="none" stroke="black" points="554,-1005 554,-1083 706,-1083 706,-1005 554,-1005"/>
</g>
<!-- users&#45;&gt;logs -->
<g id="edge28" class="edge">
<title>users&#45;&gt;logs</title>
<path fill="none" stroke="#606060" stroke-width="1.1" d="M388,-971.33C463.65,-971.33 564,-971.33 564,-971.33 564,-971.33 564,-997.69 564,-997.69"/>
<polygon fill="#606060" stroke="#606060" stroke-width="1.1" points="561.55,-997.69 564,-1004.69 566.45,-997.69 561.55,-997.69"/>
<text text-anchor="middle" x="463.5" y="-1047.8" font-family="Times,serif" font-size="14.00">1:N</text>
</g>
<!-- categories -->
<g id="node5" class="node">
<title>categories</title>
<polygon fill="#dcfce7" stroke="transparent" points="1.5,-226 1.5,-245 108.5,-245 108.5,-226 1.5,-226"/>
<text text-anchor="start" x="13" y="-232.8" font-family="DejaVu Sans" font-weight="bold" font-size="14.00">categories</text>
<text text-anchor="start" x="3.5" y="-212.8" font-family="DejaVu Sans" font-size="14.00">PK category_id</text>
<text text-anchor="start" x="3.5" y="-193.8" font-family="DejaVu Sans" font-size="14.00">name, status</text>
<polygon fill="none" stroke="black" points="0,-187.5 0,-246.5 109,-246.5 109,-187.5 0,-187.5"/>
</g>
<!-- books -->
<g id="node6" class="node">
<title>books</title>
<polygon fill="#dcfce7" stroke="transparent" points="202.5,-245 202.5,-264 409.5,-264 409.5,-245 202.5,-245"/>
<text text-anchor="start" x="282.5" y="-251.8" font-family="DejaVu Sans" font-weight="bold" font-size="14.00">books</text>
<text text-anchor="start" x="204.5" y="-231.8" font-family="DejaVu Sans" font-size="14.00">PK book_id</text>
<text text-anchor="start" x="204.5" y="-212.8" font-family="DejaVu Sans" font-size="14.00">FK category_id</text>
<text text-anchor="start" x="204.5" y="-193.8" font-family="DejaVu Sans" font-size="14.00">isbn, title, author</text>
<text text-anchor="start" x="204.5" y="-174.8" font-family="DejaVu Sans" font-size="14.00">purchase/rental/deposit price</text>
<polygon fill="none" stroke="black" points="201,-168.5 201,-265.5 410,-265.5 410,-168.5 201,-168.5"/>
</g>
<!-- categories&#45;&gt;books -->
<g id="edge4" class="edge">
<title>categories&#45;&gt;books</title>
<path fill="none" stroke="#606060" stroke-width="1.1" d="M109.27,-217C109.27,-217 193.78,-217 193.78,-217"/>
<polygon fill="#606060" stroke="#606060" stroke-width="1.1" points="193.78,-219.45 200.78,-217 193.78,-214.55 193.78,-219.45"/>
<text text-anchor="middle" x="155" y="-220.8" font-family="Times,serif" font-size="14.00">1:N</text>
</g>
<!-- copies -->
<g id="node7" class="node">
<title>copies</title>
<polygon fill="#dcfce7" stroke="transparent" points="549,-158 549,-177 712,-177 712,-158 549,-158"/>
<text text-anchor="start" x="582.5" y="-164.8" font-family="DejaVu Sans" font-weight="bold" font-size="14.00">book_copies</text>
<text text-anchor="start" x="551" y="-144.8" font-family="DejaVu Sans" font-size="14.00">PK book_copy_id</text>
<text text-anchor="start" x="551" y="-125.8" font-family="DejaVu Sans" font-size="14.00">FK book_id</text>
<text text-anchor="start" x="551" y="-106.8" font-family="DejaVu Sans" font-size="14.00">copy_code</text>
<text text-anchor="start" x="551" y="-87.8" font-family="DejaVu Sans" font-size="14.00">condition, status, shelf</text>
<polygon fill="none" stroke="black" points="547.5,-81.5 547.5,-178.5 712.5,-178.5 712.5,-81.5 547.5,-81.5"/>
</g>
<!-- books&#45;&gt;copies -->
<g id="edge5" class="edge">
<title>books&#45;&gt;copies</title>
<path fill="none" stroke="#606060" stroke-width="1.1" d="M410.41,-173.5C410.41,-173.5 540.29,-173.5 540.29,-173.5"/>
<polygon fill="#606060" stroke="#606060" stroke-width="1.1" points="540.29,-175.95 547.29,-173.5 540.29,-171.05 540.29,-175.95"/>
<text text-anchor="middle" x="463.5" y="-177.8" font-family="Times,serif" font-size="14.00">1:N</text>
</g>
<!-- cartitems -->
<g id="node9" class="node">
<title>cartitems</title>
<polygon fill="#fef3c7" stroke="transparent" points="891.5,-446 891.5,-465 1082.5,-465 1082.5,-446 891.5,-446"/>
<text text-anchor="start" x="946" y="-452.8" font-family="DejaVu Sans" font-weight="bold" font-size="14.00">cart_items</text>
<text text-anchor="start" x="893.5" y="-432.8" font-family="DejaVu Sans" font-size="14.00">PK cart_item_id</text>
<text text-anchor="start" x="893.5" y="-413.8" font-family="DejaVu Sans" font-size="14.00">FK cart_id, book_id</text>
<text text-anchor="start" x="893.5" y="-394.8" font-family="DejaVu Sans" font-size="14.00">type, quantity, rental_days</text>
<polygon fill="none" stroke="black" points="890,-388 890,-466 1083,-466 1083,-388 890,-388"/>
</g>
<!-- books&#45;&gt;cartitems -->
<g id="edge8" class="edge">
<title>books&#45;&gt;cartitems</title>
<path fill="none" stroke="#606060" stroke-width="1.1" d="M397,-265.96C397,-320.62 397,-401.5 397,-401.5 397,-401.5 882.82,-401.5 882.82,-401.5"/>
<polygon fill="#606060" stroke="#606060" stroke-width="1.1" points="882.82,-403.95 889.82,-401.5 882.82,-399.05 882.82,-403.95"/>
<text text-anchor="middle" x="630" y="-363.8" font-family="Times,serif" font-size="14.00">1:N</text>
</g>
<!-- purchasedetail -->
<g id="node11" class="node">
<title>purchasedetail</title>
<polygon fill="#fee2e2" stroke="transparent" points="893.5,-278 893.5,-297 1079.5,-297 1079.5,-278 893.5,-278"/>
<text text-anchor="start" x="895.5" y="-284.8" font-family="DejaVu Sans" font-weight="bold" font-size="14.00">purchase_order_details</text>
<text text-anchor="start" x="895.5" y="-264.8" font-family="DejaVu Sans" font-size="14.00">PK detail_id</text>
<text text-anchor="start" x="895.5" y="-245.8" font-family="DejaVu Sans" font-size="14.00">FK order/book/book_copy</text>
<text text-anchor="start" x="895.5" y="-226.8" font-family="DejaVu Sans" font-size="14.00">unit_price</text>
<polygon fill="none" stroke="black" points="892.5,-220 892.5,-298 1080.5,-298 1080.5,-220 892.5,-220"/>
</g>
<!-- books&#45;&gt;purchasedetail -->
<g id="edge11" class="edge">
<title>books&#45;&gt;purchasedetail</title>
<path fill="none" stroke="#606060" stroke-width="1.1" d="M410.04,-250.33C410.04,-250.33 885.33,-250.33 885.33,-250.33"/>
<polygon fill="#606060" stroke="#606060" stroke-width="1.1" points="885.33,-252.78 892.33,-250.33 885.33,-247.88 885.33,-252.78"/>
<text text-anchor="middle" x="630" y="-262.8" font-family="Times,serif" font-size="14.00">1:N</text>
</g>
<!-- rentaldetail -->
<g id="node13" class="node">
<title>rentaldetail</title>
<polygon fill="#ede9fe" stroke="transparent" points="895.5,-117 895.5,-136 1077.5,-136 1077.5,-117 895.5,-117"/>
<text text-anchor="start" x="908" y="-123.8" font-family="DejaVu Sans" font-weight="bold" font-size="14.00">rental_order_details</text>
<text text-anchor="start" x="897.5" y="-103.8" font-family="DejaVu Sans" font-size="14.00">PK detail_id</text>
<text text-anchor="start" x="897.5" y="-84.8" font-family="DejaVu Sans" font-size="14.00">FK rental/book/book_copy</text>
<text text-anchor="start" x="897.5" y="-65.8" font-family="DejaVu Sans" font-size="14.00">due/return dates, fees</text>
<polygon fill="none" stroke="black" points="894.5,-59 894.5,-137 1078.5,-137 1078.5,-59 894.5,-59"/>
</g>
<!-- books&#45;&gt;rentaldetail -->
<g id="edge15" class="edge">
<title>books&#45;&gt;rentaldetail</title>
<path fill="none" stroke="#606060" stroke-width="1.1" d="M410.12,-187.25C601.16,-187.25 987,-187.25 987,-187.25 987,-187.25 987,-144.15 987,-144.15"/>
<polygon fill="#606060" stroke="#606060" stroke-width="1.1" points="989.45,-144.15 987,-137.15 984.55,-144.15 989.45,-144.15"/>
<text text-anchor="middle" x="630" y="-29.8" font-family="Times,serif" font-size="14.00">1:N</text>
</g>
<!-- copies&#45;&gt;purchasedetail -->
<g id="edge12" class="edge">
<title>copies&#45;&gt;purchasedetail</title>
<path fill="none" stroke="#606060" stroke-width="1.1" d="M630,-178.58C630,-206.14 630,-235.17 630,-235.17 630,-235.17 885.37,-235.17 885.37,-235.17"/>
<polygon fill="#606060" stroke="#606060" stroke-width="1.1" points="885.37,-237.62 892.37,-235.17 885.37,-232.72 885.37,-237.62"/>
<text text-anchor="middle" x="816.5" y="-161.8" font-family="Times,serif" font-size="14.00">1:0..1</text>
</g>
<!-- copies&#45;&gt;rentaldetail -->
<g id="edge16" class="edge">
<title>copies&#45;&gt;rentaldetail</title>
<path fill="none" stroke="#606060" stroke-width="1.1" d="M712.68,-100C712.68,-100 887.23,-100 887.23,-100"/>
<polygon fill="#606060" stroke="#606060" stroke-width="1.1" points="887.23,-102.45 894.23,-100 887.23,-97.55 887.23,-102.45"/>
<text text-anchor="middle" x="816.5" y="-101.8" font-family="Times,serif" font-size="14.00">1:N history</text>
</g>
<!-- carts&#45;&gt;cartitems -->
<g id="edge7" class="edge">
<title>carts&#45;&gt;cartitems</title>
<path fill="none" stroke="#606060" stroke-width="1.1" d="M669.67,-1153C743.6,-1153 895,-1153 895,-1153 895,-1153 895,-473.03 895,-473.03"/>
<polygon fill="#606060" stroke="#606060" stroke-width="1.1" points="897.45,-473.03 895,-466.03 892.55,-473.03 897.45,-473.03"/>
<text text-anchor="middle" x="816.5" y="-474.8" font-family="Times,serif" font-size="14.00">1:N</text>
</g>
<!-- purchase&#45;&gt;purchasedetail -->
<g id="edge10" class="edge">
<title>purchase&#45;&gt;purchasedetail</title>
<path fill="none" stroke="#606060" stroke-width="1.1" d="M743.09,-677C782.47,-677 817,-677 817,-677 817,-677 817,-281.75 817,-281.75 817,-281.75 885.33,-281.75 885.33,-281.75"/>
<polygon fill="#606060" stroke="#606060" stroke-width="1.1" points="885.33,-284.2 892.33,-281.75 885.33,-279.3 885.33,-284.2"/>
<text text-anchor="middle" x="816.5" y="-328.8" font-family="Times,serif" font-size="14.00">1:N</text>
</g>
<!-- purchase&#45;&gt;payments -->
<g id="edge26" class="edge">
<title>purchase&#45;&gt;payments</title>
<path fill="none" stroke="#606060" stroke-width="1.1" d="M743.29,-703C743.29,-703 892.24,-703 892.24,-703"/>
<polygon fill="#606060" stroke="#606060" stroke-width="1.1" points="892.24,-705.45 899.24,-703 892.24,-700.55 892.24,-705.45"/>
<text text-anchor="middle" x="816.5" y="-693.8" font-family="Times,serif" font-size="14.00">1:0..1</text>
</g>
<!-- rental&#45;&gt;rentaldetail -->
<g id="edge14" class="edge">
<title>rental&#45;&gt;rentaldetail</title>
<path fill="none" stroke="#606060" stroke-width="1.1" d="M726,-414.86C726,-326.36 726,-118.5 726,-118.5 726,-118.5 887.29,-118.5 887.29,-118.5"/>
<polygon fill="#606060" stroke="#606060" stroke-width="1.1" points="887.29,-120.95 894.29,-118.5 887.29,-116.05 887.29,-120.95"/>
<text text-anchor="middle" x="816.5" y="-221.8" font-family="Times,serif" font-size="14.00">1:N</text>
</g>
<!-- rental&#45;&gt;payments -->
<g id="edge27" class="edge">
<title>rental&#45;&gt;payments</title>
<path fill="none" stroke="#606060" stroke-width="1.1" d="M739.54,-479.5C844.48,-479.5 987,-479.5 987,-479.5 987,-479.5 987,-643.9 987,-643.9"/>
<polygon fill="#606060" stroke="#606060" stroke-width="1.1" points="984.55,-643.9 987,-650.9 989.45,-643.9 984.55,-643.9"/>
<text text-anchor="middle" x="816.5" y="-600.8" font-family="Times,serif" font-size="14.00">1:0..1</text>
</g>
<!-- extensions -->
<g id="node14" class="node">
<title>extensions</title>
<polygon fill="#ede9fe" stroke="transparent" points="1199.5,-176 1199.5,-195 1409.5,-195 1409.5,-176 1199.5,-176"/>
<text text-anchor="start" x="1205" y="-182.8" font-family="DejaVu Sans" font-weight="bold" font-size="14.00">book_extension_requests</text>
<text text-anchor="start" x="1201.5" y="-162.8" font-family="DejaVu Sans" font-size="14.00">PK extension_request_id</text>
<text text-anchor="start" x="1201.5" y="-143.8" font-family="DejaVu Sans" font-size="14.00">FK rental_detail/processed_by</text>
<text text-anchor="start" x="1201.5" y="-124.8" font-family="DejaVu Sans" font-size="14.00">extra_days, extra_fee, status</text>
<polygon fill="none" stroke="black" points="1198.5,-118 1198.5,-196 1410.5,-196 1410.5,-118 1198.5,-118"/>
</g>
<!-- rentaldetail&#45;&gt;extensions -->
<g id="edge17" class="edge">
<title>rentaldetail&#45;&gt;extensions</title>
<path fill="none" stroke="#606060" stroke-width="1.1" d="M1078.91,-127.5C1078.91,-127.5 1191.42,-127.5 1191.42,-127.5"/>
<polygon fill="#606060" stroke="#606060" stroke-width="1.1" points="1191.42,-129.95 1198.42,-127.5 1191.42,-125.05 1191.42,-129.95"/>
<text text-anchor="middle" x="1136.5" y="-160.8" font-family="Times,serif" font-size="14.00">1:N</text>
</g>
<!-- returns -->
<g id="node15" class="node">
<title>returns</title>
<polygon fill="#ede9fe" stroke="transparent" points="1191.5,-58 1191.5,-77 1418.5,-77 1418.5,-58 1191.5,-58"/>
<text text-anchor="start" x="1224.5" y="-64.8" font-family="DejaVu Sans" font-weight="bold" font-size="14.00">book_return_records</text>
<text text-anchor="start" x="1193.5" y="-44.8" font-family="DejaVu Sans" font-size="14.00">PK return_record_id</text>
<text text-anchor="start" x="1193.5" y="-25.8" font-family="DejaVu Sans" font-size="14.00">FK rental_detail/processed_by</text>
<text text-anchor="start" x="1193.5" y="-6.8" font-family="DejaVu Sans" font-size="14.00">condition, late/damage/lost fees</text>
<polygon fill="none" stroke="black" points="1190,0 1190,-78 1419,-78 1419,0 1190,0"/>
</g>
<!-- rentaldetail&#45;&gt;returns -->
<g id="edge18" class="edge">
<title>rentaldetail&#45;&gt;returns</title>
<path fill="none" stroke="#606060" stroke-width="1.1" d="M1078.91,-68.5C1078.91,-68.5 1182.81,-68.5 1182.81,-68.5"/>
<polygon fill="#606060" stroke="#606060" stroke-width="1.1" points="1182.81,-70.95 1189.81,-68.5 1182.81,-66.05 1182.81,-70.95"/>
<text text-anchor="middle" x="1136.5" y="-42.8" font-family="Times,serif" font-size="14.00">1:0..1</text>
</g>
<!-- vouchers -->
<g id="node16" class="node">
<title>vouchers</title>
<polygon fill="#fae8ff" stroke="transparent" points="220.5,-592 220.5,-611 391.5,-611 391.5,-592 220.5,-592"/>
<text text-anchor="start" x="270" y="-598.8" font-family="DejaVu Sans" font-weight="bold" font-size="14.00">vouchers</text>
<text text-anchor="start" x="222.5" y="-578.8" font-family="DejaVu Sans" font-size="14.00">PK voucher_id</text>
<text text-anchor="start" x="222.5" y="-559.8" font-family="DejaVu Sans" font-size="14.00">FK created_by</text>
<text text-anchor="start" x="222.5" y="-540.8" font-family="DejaVu Sans" font-size="14.00">code, type, limits, dates</text>
<polygon fill="none" stroke="black" points="219,-534 219,-612 392,-612 392,-534 219,-534"/>
</g>
<!-- vouchers&#45;&gt;purchase -->
<g id="edge19" class="edge">
<title>vouchers&#45;&gt;purchase</title>
<path fill="none" stroke="#606060" stroke-width="1.1" d="M392.15,-595.6C458.95,-595.6 540,-595.6 540,-595.6 540,-595.6 540,-643.79 540,-643.79"/>
<polygon fill="#606060" stroke="#606060" stroke-width="1.1" points="537.55,-643.79 540,-650.79 542.45,-643.79 537.55,-643.79"/>
<text text-anchor="middle" x="463.5" y="-636.8" font-family="Times,serif" font-size="14.00">1:N</text>
</g>
<!-- vouchers&#45;&gt;rental -->
<g id="edge20" class="edge">
<title>vouchers&#45;&gt;rental</title>
<path fill="none" stroke="#606060" stroke-width="1.1" d="M392.3,-549.4C455.47,-549.4 530,-549.4 530,-549.4 530,-549.4 530,-500.08 530,-500.08"/>
<polygon fill="#606060" stroke="#606060" stroke-width="1.1" points="532.45,-500.08 530,-493.08 527.55,-500.08 532.45,-500.08"/>
<text text-anchor="middle" x="463.5" y="-456.8" font-family="Times,serif" font-size="14.00">1:N</text>
</g>
<!-- vouchers&#45;&gt;uservouchers -->
<g id="edge22" class="edge">
<title>vouchers&#45;&gt;uservouchers</title>
<path fill="none" stroke="#606060" stroke-width="1.1" d="M392.03,-564.8C392.03,-564.8 541.45,-564.8 541.45,-564.8"/>
<polygon fill="#606060" stroke="#606060" stroke-width="1.1" points="541.45,-567.25 548.45,-564.8 541.45,-562.35 541.45,-567.25"/>
<text text-anchor="middle" x="463.5" y="-576.8" font-family="Times,serif" font-size="14.00">1:N</text>
</g>
<!-- transactions -->
<g id="node19" class="node">
<title>transactions</title>
<polygon fill="#cffafe" stroke="transparent" points="900.5,-1376 900.5,-1395 1072.5,-1395 1072.5,-1376 900.5,-1376"/>
<text text-anchor="start" x="909.5" y="-1382.8" font-family="DejaVu Sans" font-weight="bold" font-size="14.00">wallet_transactions</text>
<text text-anchor="start" x="902.5" y="-1362.8" font-family="DejaVu Sans" font-size="14.00">PK transaction_id</text>
<text text-anchor="start" x="902.5" y="-1343.8" font-family="DejaVu Sans" font-size="14.00">FK wallet_id</text>
<text text-anchor="start" x="902.5" y="-1324.8" font-family="DejaVu Sans" font-size="14.00">type, amount, reference</text>
<polygon fill="none" stroke="black" points="899.5,-1318 899.5,-1396 1073.5,-1396 1073.5,-1318 899.5,-1318"/>
</g>
<!-- wallets&#45;&gt;transactions -->
<g id="edge24" class="edge">
<title>wallets&#45;&gt;transactions</title>
<path fill="none" stroke="#606060" stroke-width="1.1" d="M690.88,-1357C690.88,-1357 892.48,-1357 892.48,-1357"/>
<polygon fill="#606060" stroke="#606060" stroke-width="1.1" points="892.48,-1359.45 899.48,-1357 892.48,-1354.55 892.48,-1359.45"/>
<text text-anchor="middle" x="816.5" y="-1360.8" font-family="Times,serif" font-size="14.00">1:N</text>
</g>
</g>
</svg>
