<?xml version="1.0" encoding="UTF-8" standalone="no"?>
<!DOCTYPE svg PUBLIC "-//W3C//DTD SVG 1.1//EN"
 "http://www.w3.org/Graphics/SVG/1.1/DTD/svg11.dtd">
<!-- Generated by graphviz version 2.42.4 (0)
 -->
<!-- Title: UseCase Pages: 1 -->
<svg width="628pt" height="1147pt"
 viewBox="0.00 0.00 627.77 1147.20" xmlns="http://www.w3.org/2000/svg" xmlns:xlink="http://www.w3.org/1999/xlink">
<g id="graph0" class="graph" transform="scale(1 1) rotate(0) translate(21.6 1125.6)">
<title>UseCase</title>
<polygon fill="white" stroke="transparent" points="-21.6,21.6 -21.6,-1125.6 606.17,-1125.6 606.17,21.6 -21.6,21.6"/>
<text text-anchor="middle" x="292.28" y="-1084" font-family="DejaVu Sans" font-size="20.00">Book Store &amp; Rental &#45; Use Case Diagram</text>
<g id="clust1" class="cluster">
<title>cluster_system</title>
<path fill="white" stroke="#94a3b8" d="M167,-8C167,-8 572.57,-8 572.57,-8 578.57,-8 584.57,-14 584.57,-20 584.57,-20 584.57,-1054 584.57,-1054 584.57,-1060 578.57,-1066 572.57,-1066 572.57,-1066 167,-1066 167,-1066 161,-1066 155,-1060 155,-1054 155,-1054 155,-20 155,-20 155,-14 161,-8 167,-8"/>
<text text-anchor="middle" x="369.78" y="-1046" font-family="DejaVu Sans" font-size="20.00">Book Store &amp; Rental Management System</text>
</g>
<!-- guest -->
<g id="node1" class="node">
<title>guest</title>
<path fill="#f3f4f6" stroke="black" d="M58.5,-997C58.5,-997 25.5,-997 25.5,-997 19.5,-997 13.5,-991 13.5,-985 13.5,-985 13.5,-973 13.5,-973 13.5,-967 19.5,-961 25.5,-961 25.5,-961 58.5,-961 58.5,-961 64.5,-961 70.5,-967 70.5,-973 70.5,-973 70.5,-985 70.5,-985 70.5,-991 64.5,-997 58.5,-997"/>
<text text-anchor="middle" x="42" y="-975.3" font-family="DejaVu Sans" font-size="14.00">Guest</text>
</g>
<!-- browse -->
<g id="node5" class="node">
<title>browse</title>
<ellipse fill="white" stroke="black" cx="369.78" cy="-949" rx="124.28" ry="18"/>
<text text-anchor="middle" x="369.78" y="-945.3" font-family="DejaVu Sans" font-size="14.00">Xem / tìm kiếm / lọc sách</text>
</g>
<!-- guest&#45;&gt;browse -->
<g id="edge1" class="edge">
<title>guest&#45;&gt;browse</title>
<path fill="none" stroke="#4b5563" d="M70.78,-976.44C111.25,-972.72 188.77,-965.58 254.6,-959.51"/>
<polygon fill="#4b5563" stroke="#4b5563" points="255.01,-962.99 264.64,-958.59 254.36,-956.02 255.01,-962.99"/>
</g>
<!-- auth -->
<g id="node6" class="node">
<title>auth</title>
<ellipse fill="white" stroke="black" cx="369.78" cy="-1010" rx="176.57" ry="18"/>
<text text-anchor="middle" x="369.78" y="-1006.3" font-family="DejaVu Sans" font-size="14.00">Đăng ký, đăng nhập, quên mật khẩu</text>
</g>
<!-- guest&#45;&gt;auth -->
<g id="edge2" class="edge">
<title>guest&#45;&gt;auth</title>
<path fill="none" stroke="#4b5563" d="M70.78,-981.64C106.2,-985.01 170,-991.08 229.51,-996.75"/>
<polygon fill="#4b5563" stroke="#4b5563" points="229.5,-1000.26 239.79,-997.73 230.16,-993.29 229.5,-1000.26"/>
</g>
<!-- customer -->
<g id="node2" class="node">
<title>customer</title>
<path fill="#dbeafe" stroke="black" d="M72,-753C72,-753 12,-753 12,-753 6,-753 0,-747 0,-741 0,-741 0,-729 0,-729 0,-723 6,-717 12,-717 12,-717 72,-717 72,-717 78,-717 84,-723 84,-729 84,-729 84,-741 84,-741 84,-747 78,-753 72,-753"/>
<text text-anchor="middle" x="42" y="-731.3" font-family="DejaVu Sans" font-size="14.00">Customer</text>
</g>
<!-- customer&#45;&gt;browse -->
<g id="edge3" class="edge">
<title>customer&#45;&gt;browse</title>
<path fill="none" stroke="#4b5563" d="M48.21,-753.08C60.14,-790.94 93.29,-878.42 155,-919 178.81,-934.66 207.34,-943.66 235.68,-948.58"/>
<polygon fill="#4b5563" stroke="#4b5563" points="235.26,-952.06 245.68,-950.16 236.35,-945.14 235.26,-952.06"/>
</g>
<!-- profile -->
<g id="node7" class="node">
<title>profile</title>
<ellipse fill="white" stroke="black" cx="369.78" cy="-827" rx="137.28" ry="18"/>
<text text-anchor="middle" x="369.78" y="-823.3" font-family="DejaVu Sans" font-size="14.00">Hồ sơ, địa chỉ, đổi mật khẩu</text>
</g>
<!-- customer&#45;&gt;profile -->
<g id="edge4" class="edge">
<title>customer&#45;&gt;profile</title>
<path fill="none" stroke="#4b5563" d="M69.32,-753.23C91.24,-767.48 123.8,-786.57 155,-797 181.87,-805.98 211.51,-812.27 239.94,-816.68"/>
<polygon fill="#4b5563" stroke="#4b5563" points="239.54,-820.16 249.94,-818.16 240.56,-813.23 239.54,-820.16"/>
</g>
<!-- cart -->
<g id="node8" class="node">
<title>cart</title>
<ellipse fill="white" stroke="black" cx="369.78" cy="-766" rx="114.28" ry="18"/>
<text text-anchor="middle" x="369.78" y="-762.3" font-family="DejaVu Sans" font-size="14.00">Quản lý giỏ mua / thuê</text>
</g>
<!-- customer&#45;&gt;cart -->
<g id="edge5" class="edge">
<title>customer&#45;&gt;cart</title>
<path fill="none" stroke="#4b5563" d="M84.26,-738.93C128.62,-743.15 200.94,-750.03 261.56,-755.8"/>
<polygon fill="#4b5563" stroke="#4b5563" points="261.28,-759.29 271.57,-756.75 261.95,-752.32 261.28,-759.29"/>
</g>
<!-- purchase -->
<g id="node9" class="node">
<title>purchase</title>
<ellipse fill="white" stroke="black" cx="369.78" cy="-705" rx="155.17" ry="18"/>
<text text-anchor="middle" x="369.78" y="-701.3" font-family="DejaVu Sans" font-size="14.00">Thanh toán và quản lý đơn mua</text>
</g>
<!-- customer&#45;&gt;purchase -->
<g id="edge6" class="edge">
<title>customer&#45;&gt;purchase</title>
<path fill="none" stroke="#4b5563" d="M84.26,-731.2C122.86,-727.65 182.64,-722.14 237.46,-717.09"/>
<polygon fill="#4b5563" stroke="#4b5563" points="238,-720.56 247.64,-716.16 237.36,-713.59 238,-720.56"/>
</g>
<!-- rental -->
<g id="node10" class="node">
<title>rental</title>
<ellipse fill="white" stroke="black" cx="369.78" cy="-644" rx="145.67" ry="18"/>
<text text-anchor="middle" x="369.78" y="-640.3" font-family="DejaVu Sans" font-size="14.00">Thuê sách và theo dõi hạn trả</text>
</g>
<!-- customer&#45;&gt;rental -->
<g id="edge7" class="edge">
<title>customer&#45;&gt;rental</title>
<path fill="none" stroke="#4b5563" d="M70.32,-716.86C92.28,-703.17 124.41,-685.07 155,-675 181.33,-666.33 210.29,-660.09 238.15,-655.59"/>
<polygon fill="#4b5563" stroke="#4b5563" points="239.01,-659 248.36,-654.01 237.94,-652.08 239.01,-659"/>
</g>
<!-- extension -->
<g id="node11" class="node">
<title>extension</title>
<ellipse fill="white" stroke="black" cx="369.78" cy="-583" rx="81.79" ry="18"/>
<text text-anchor="middle" x="369.78" y="-579.3" font-family="DejaVu Sans" font-size="14.00">Yêu cầu gia hạn</text>
</g>
<!-- customer&#45;&gt;extension -->
<g id="edge8" class="edge">
<title>customer&#45;&gt;extension</title>
<path fill="none" stroke="#4b5563" d="M54.11,-716.59C71.73,-689.17 108.89,-638.24 155,-614 192.33,-594.37 238.12,-586.01 277.73,-582.8"/>
<polygon fill="#4b5563" stroke="#4b5563" points="278.2,-586.27 287.93,-582.07 277.7,-579.29 278.2,-586.27"/>
</g>
<!-- returnreq -->
<g id="node12" class="node">
<title>returnreq</title>
<ellipse fill="white" stroke="black" cx="369.78" cy="-522" rx="85.29" ry="18"/>
<text text-anchor="middle" x="369.78" y="-518.3" font-family="DejaVu Sans" font-size="14.00">Yêu cầu trả sách</text>
</g>
<!-- customer&#45;&gt;returnreq -->
<g id="edge9" class="edge">
<title>customer&#45;&gt;returnreq</title>
<path fill="none" stroke="#4b5563" d="M48.37,-716.85C60.53,-679.28 93.93,-593.15 155,-553 190.53,-529.64 236.53,-520.89 276.75,-518.39"/>
<polygon fill="#4b5563" stroke="#4b5563" points="277.03,-521.88 286.84,-517.89 276.68,-514.89 277.03,-521.88"/>
</g>
<!-- wallet -->
<g id="node13" class="node">
<title>wallet</title>
<ellipse fill="white" stroke="black" cx="369.78" cy="-888" rx="109.38" ry="18"/>
<text text-anchor="middle" x="369.78" y="-884.3" font-family="DejaVu Sans" font-size="14.00">Ví và lịch sử giao dịch</text>
</g>
<!-- customer&#45;&gt;wallet -->
<g id="edge10" class="edge">
<title>customer&#45;&gt;wallet</title>
<path fill="none" stroke="#4b5563" d="M53.73,-753.28C71.11,-781.07 108.26,-833.32 155,-858 183.98,-873.3 218.11,-881.65 250.49,-886.01"/>
<polygon fill="#4b5563" stroke="#4b5563" points="250.12,-889.49 260.48,-887.24 250.98,-882.55 250.12,-889.49"/>
</g>
<!-- staff -->
<g id="node3" class="node">
<title>staff</title>
<path fill="#dcfce7" stroke="black" d="M57,-372C57,-372 27,-372 27,-372 21,-372 15,-366 15,-360 15,-360 15,-348 15,-348 15,-342 21,-336 27,-336 27,-336 57,-336 57,-336 63,-336 69,-342 69,-348 69,-348 69,-360 69,-360 69,-366 63,-372 57,-372"/>
<text text-anchor="middle" x="42" y="-350.3" font-family="DejaVu Sans" font-size="14.00">Staff</text>
</g>
<!-- stafforders -->
<g id="node14" class="node">
<title>stafforders</title>
<ellipse fill="white" stroke="black" cx="369.78" cy="-400" rx="135.68" ry="18"/>
<text text-anchor="middle" x="369.78" y="-396.3" font-family="DejaVu Sans" font-size="14.00">Xác nhận / từ chối đơn mua</text>
</g>
<!-- staff&#45;&gt;stafforders -->
<g id="edge11" class="edge">
<title>staff&#45;&gt;stafforders</title>
<path fill="none" stroke="#4b5563" d="M69.25,-357.77C91.94,-361.02 125.63,-365.84 155,-370 190.97,-375.09 230.35,-380.63 265.4,-385.55"/>
<polygon fill="#4b5563" stroke="#4b5563" points="265.26,-389.06 275.65,-386.98 266.23,-382.13 265.26,-389.06"/>
</g>
<!-- staffrental -->
<g id="node15" class="node">
<title>staffrental</title>
<ellipse fill="white" stroke="black" cx="369.78" cy="-339" rx="159.47" ry="18"/>
<text text-anchor="middle" x="369.78" y="-335.3" font-family="DejaVu Sans" font-size="14.00">Giao, trả, gia hạn, phí trễ/hư/mất</text>
</g>
<!-- staff&#45;&gt;staffrental -->
<g id="edge12" class="edge">
<title>staff&#45;&gt;staffrental</title>
<path fill="none" stroke="#4b5563" d="M69.11,-352.8C100.74,-351.34 156.64,-348.77 211.67,-346.23"/>
<polygon fill="#4b5563" stroke="#4b5563" points="212.1,-349.72 221.93,-345.76 211.78,-342.73 212.1,-349.72"/>
</g>
<!-- inventory -->
<g id="node16" class="node">
<title>inventory</title>
<ellipse fill="white" stroke="black" cx="369.78" cy="-278" rx="141.88" ry="18"/>
<text text-anchor="middle" x="369.78" y="-274.3" font-family="DejaVu Sans" font-size="14.00">Quản lý trạng thái BookCopy</text>
</g>
<!-- staff&#45;&gt;inventory -->
<g id="edge13" class="edge">
<title>staff&#45;&gt;inventory</title>
<path fill="none" stroke="#4b5563" d="M69.09,-341.45C91.41,-331.22 124.65,-317.17 155,-309 184.53,-301.05 216.93,-295.02 247.38,-290.49"/>
<polygon fill="#4b5563" stroke="#4b5563" points="248.23,-293.91 257.63,-289.01 247.23,-286.98 248.23,-293.91"/>
</g>
<!-- revenue -->
<g id="node17" class="node">
<title>revenue</title>
<ellipse fill="white" stroke="black" cx="369.78" cy="-461" rx="137.58" ry="18"/>
<text text-anchor="middle" x="369.78" y="-457.3" font-family="DejaVu Sans" font-size="14.00">Thống kê và xuất doanh thu</text>
</g>
<!-- staff&#45;&gt;revenue -->
<g id="edge14" class="edge">
<title>staff&#45;&gt;revenue</title>
<path fill="none" stroke="#4b5563" d="M63.2,-372.25C84.42,-390.33 119.59,-417.23 155,-431 179.97,-440.71 207.66,-447.33 234.6,-451.84"/>
<polygon fill="#4b5563" stroke="#4b5563" points="234.06,-455.3 244.49,-453.41 235.16,-448.39 234.06,-455.3"/>
</g>
<!-- admin -->
<g id="node4" class="node">
<title>admin</title>
<path fill="#fee2e2" stroke="black" d="M60.5,-281C60.5,-281 23.5,-281 23.5,-281 17.5,-281 11.5,-275 11.5,-269 11.5,-269 11.5,-257 11.5,-257 11.5,-251 17.5,-245 23.5,-245 23.5,-245 60.5,-245 60.5,-245 66.5,-245 72.5,-251 72.5,-257 72.5,-257 72.5,-269 72.5,-269 72.5,-275 66.5,-281 60.5,-281"/>
<text text-anchor="middle" x="42" y="-259.3" font-family="DejaVu Sans" font-size="14.00">Admin</text>
</g>
<!-- admin&#45;&gt;stafforders -->
<g id="edge18" class="edge">
<title>admin&#45;&gt;stafforders</title>
<path fill="none" stroke="#4b5563" d="M56.18,-281.35C75.02,-306.05 112.16,-349.25 155,-370 177.86,-381.07 203.59,-388.38 229.07,-393.15"/>
<polygon fill="#4b5563" stroke="#4b5563" points="228.75,-396.64 239.2,-394.91 229.95,-389.75 228.75,-396.64"/>
</g>
<!-- admin&#45;&gt;staffrental -->
<g id="edge19" class="edge">
<title>admin&#45;&gt;staffrental</title>
<path fill="none" stroke="#4b5563" d="M72.71,-277.6C94.88,-287.9 126.19,-301.19 155,-309 181.42,-316.16 210.16,-321.67 237.76,-325.9"/>
<polygon fill="#4b5563" stroke="#4b5563" points="237.46,-329.39 247.86,-327.4 238.48,-322.47 237.46,-329.39"/>
</g>
<!-- admin&#45;&gt;inventory -->
<g id="edge20" class="edge">
<title>admin&#45;&gt;inventory</title>
<path fill="none" stroke="#4b5563" d="M72.77,-264.37C107.82,-265.98 168.53,-268.78 225.88,-271.42"/>
<polygon fill="#4b5563" stroke="#4b5563" points="226.02,-274.93 236.17,-271.89 226.34,-267.94 226.02,-274.93"/>
</g>
<!-- admin&#45;&gt;revenue -->
<g id="edge21" class="edge">
<title>admin&#45;&gt;revenue</title>
<path fill="none" stroke="#4b5563" d="M55.23,-281.13C63.39,-293.25 74.36,-309.57 84,-324 115.7,-371.46 106.71,-400.58 155,-431 175.28,-443.77 198.76,-452.04 222.58,-457.25"/>
<polygon fill="#4b5563" stroke="#4b5563" points="221.95,-460.69 232.44,-459.23 223.33,-453.83 221.95,-460.69"/>
</g>
<!-- users -->
<g id="node18" class="node">
<title>users</title>
<ellipse fill="white" stroke="black" cx="369.78" cy="-156" rx="155.17" ry="18"/>
<text text-anchor="middle" x="369.78" y="-152.3" font-family="DejaVu Sans" font-size="14.00">Quản lý khách hàng / nhân viên</text>
</g>
<!-- admin&#45;&gt;users -->
<g id="edge15" class="edge">
<title>admin&#45;&gt;users</title>
<path fill="none" stroke="#4b5563" d="M63.65,-244.69C84.96,-226.89 119.95,-200.6 155,-187 177.74,-178.18 202.72,-171.84 227.35,-167.29"/>
<polygon fill="#4b5563" stroke="#4b5563" points="228.25,-170.68 237.49,-165.51 227.04,-163.79 228.25,-170.68"/>
</g>
<!-- catalog -->
<g id="node19" class="node">
<title>catalog</title>
<ellipse fill="white" stroke="black" cx="369.78" cy="-95" rx="161.37" ry="18"/>
<text text-anchor="middle" x="369.78" y="-91.3" font-family="DejaVu Sans" font-size="14.00">Quản lý thể loại, Book, BookCopy</text>
</g>
<!-- admin&#45;&gt;catalog -->
<g id="edge16" class="edge">
<title>admin&#45;&gt;catalog</title>
<path fill="none" stroke="#4b5563" d="M52.13,-244.67C68.28,-214.35 105,-154.28 155,-126 172.1,-116.33 191.16,-109.31 210.66,-104.28"/>
<polygon fill="#4b5563" stroke="#4b5563" points="211.67,-107.63 220.57,-101.89 210.03,-100.83 211.67,-107.63"/>
</g>
<!-- voucher -->
<g id="node20" class="node">
<title>voucher</title>
<ellipse fill="white" stroke="black" cx="369.78" cy="-34" rx="85.29" ry="18"/>
<text text-anchor="middle" x="369.78" y="-30.3" font-family="DejaVu Sans" font-size="14.00">Quản lý voucher</text>
</g>
<!-- admin&#45;&gt;voucher -->
<g id="edge17" class="edge">
<title>admin&#45;&gt;voucher</title>
<path fill="none" stroke="#4b5563" d="M47.46,-244.82C58.28,-204.88 89.97,-109.49 155,-65 190.38,-40.79 236.79,-32.02 277.33,-29.73"/>
<polygon fill="#4b5563" stroke="#4b5563" points="277.66,-33.22 287.5,-29.28 277.35,-26.23 277.66,-33.22"/>
</g>
<!-- audit -->
<g id="node21" class="node">
<title>audit</title>
<ellipse fill="white" stroke="black" cx="369.78" cy="-217" rx="116.18" ry="18"/>
<text text-anchor="middle" x="369.78" y="-213.3" font-family="DejaVu Sans" font-size="14.00">Xem nhật ký hoạt động</text>
</g>
<!-- admin&#45;&gt;audit -->
<g id="edge22" class="edge">
<title>admin&#45;&gt;audit</title>
<path fill="none" stroke="#4b5563" d="M72.77,-258.8C117.76,-252.44 205.05,-240.12 273.23,-230.49"/>
<polygon fill="#4b5563" stroke="#4b5563" points="273.73,-233.96 283.15,-229.09 272.75,-227.02 273.73,-233.96"/>
</g>
</g>
</svg>
